<?xml version="1.0" encoding="UTF-8"?>
<svg width="850" height="380" viewBox="0 0 850 380"
     xmlns="http://www.w3.org/2000/svg" role="img"
     aria-label="Bug-Zapper &amp; Chill hardware HUD dashboard">
  <title>Bug-Zapper &amp; Chill — GitHub Contribution HUD</title>

  <defs>
    <filter id="glow" x="-120%" y="-120%" width="340%" height="340%">
      <feGaussianBlur stdDeviation="2.4" result="blur"/>
      <feMerge>
        <feMergeNode in="blur"/>
        <feMergeNode in="SourceGraphic"/>
      </feMerge>
    </filter>
    <filter id="glowStrong" x="-200%" y="-200%" width="500%" height="500%">
      <feGaussianBlur stdDeviation="4.5" result="blur"/>
      <feMerge>
        <feMergeNode in="blur"/>
        <feMergeNode in="blur"/>
        <feMergeNode in="SourceGraphic"/>
      </feMerge>
    </filter>
    <radialGradient id="orbGlow" cx="50%" cy="50%" r="50%">
      <stop offset="0%" stop-color="#eafffa" stop-opacity="1"/>
      <stop offset="45%" stop-color="#00ffcc" stop-opacity="0.95"/>
      <stop offset="100%" stop-color="#00ffcc" stop-opacity="0"/>
    </radialGradient>
    <linearGradient id="coolantGrad" x1="0%" y1="0%" x2="0%" y2="100%">
      <stop offset="0%" stop-color="#ffe8a3" stop-opacity="0.9"/>
      <stop offset="100%" stop-color="#ffb703" stop-opacity="0.55"/>
    </linearGradient>
    <linearGradient id="panelFade" x1="0%" y1="0%" x2="0%" y2="100%">
      <stop offset="0%" stop-color="#0d1117" stop-opacity="0.0"/>
      <stop offset="100%" stop-color="#0d1117" stop-opacity="0.35"/>
    </linearGradient>
  </defs>
  <rect x="0" y="0" width="850" height="380" fill="#050508"/>
  <rect x="1" y="1" width="848" height="378" fill="none"
        stroke="#1a1608" stroke-width="1"/>

  <g id="borders">
<path d="M 8.0,38.0 L 8.0,8.0 L 38.0,8.0" fill="none" stroke="#ffb703" stroke-width="2.4" stroke-linecap="square"/><path d="M 14.0,28.0 L 14.0,14.0 L 28.0,14.0" fill="none" stroke="#ffb703" stroke-width="1.1" opacity="0.65" stroke-linecap="square"/>
<path d="M 842.0,38.0 L 842.0,8.0 L 812.0,8.0" fill="none" stroke="#ffb703" stroke-width="2.4" stroke-linecap="square"/><path d="M 836.0,28.0 L 836.0,14.0 L 822.0,14.0" fill="none" stroke="#ffb703" stroke-width="1.1" opacity="0.65" stroke-linecap="square"/>
<path d="M 8.0,342.0 L 8.0,372.0 L 38.0,372.0" fill="none" stroke="#ffb703" stroke-width="2.4" stroke-linecap="square"/><path d="M 14.0,352.0 L 14.0,366.0 L 28.0,366.0" fill="none" stroke="#ffb703" stroke-width="1.1" opacity="0.65" stroke-linecap="square"/>
<path d="M 842.0,342.0 L 842.0,372.0 L 812.0,372.0" fill="none" stroke="#ffb703" stroke-width="2.4" stroke-linecap="square"/><path d="M 836.0,352.0 L 836.0,366.0 L 822.0,366.0" fill="none" stroke="#ffb703" stroke-width="1.1" opacity="0.65" stroke-linecap="square"/>
  </g>

  <g id="header-footer">
<text x="425.0" y="20" text-anchor="middle" font-family="Consolas, 'Courier New', monospace" font-size="13" font-weight="bold" fill="#e8e8ec" letter-spacing="1">PROJECT: Bug-Zapper &amp; Chill v1.0</text>
<circle cx="655" cy="16" r="4" fill="#00ffcc" filter="url(#glow)"><animate attributeName="opacity" values="1;0.25;1" dur="1.8s" repeatCount="indefinite"/></circle>
<text x="826" y="20" text-anchor="end" font-family="Consolas, 'Courier New', monospace" font-size="12" font-weight="bold" fill="#00ffcc">SYSTEM STATUS: ONLINE</text>
<text x="24" y="366" font-family="Consolas, 'Courier New', monospace" font-size="11" fill="#ffb703">ENGINEER: MikeYC-Wang</text>
<text x="425.0" y="366" text-anchor="middle" font-family="Consolas, 'Courier New', monospace" font-size="11" fill="#8a8a90">TOTAL CONTRIBUTIONS (365d): 1019</text>
<text x="826" y="366" text-anchor="end" font-family="Consolas, 'Courier New', monospace" font-size="10" fill="#5a5a60">LAST SYNC: 2026-07-18 17:15 (UTC+8)</text>
  </g>

  <g id="dividers">
<line x1="425.0" y1="40" x2="425.0" y2="344" stroke="#2a2410" stroke-width="1.5" stroke-dasharray="2 4"/>
<line x1="18" y1="40" x2="832" y2="40" stroke="#2a2410" stroke-width="1"/>
<line x1="18" y1="344" x2="832" y2="344" stroke="#2a2410" stroke-width="1"/>
  </g>

  <g id="cooling-loop">
<text x="20.0" y="52.0" font-family="Consolas, 'Courier New', monospace" font-size="15">🧪</text>
<text x="42.0" y="50.0" font-family="Consolas, 'Courier New', monospace" font-size="12.5" font-weight="bold" fill="#ffb703" letter-spacing="1.2">LIQUID COOLING SYSTEM</text>
<circle cx="408.0" cy="45.0" r="4.5" fill="#ffb703" filter="url(#glow)"><animate attributeName="opacity" values="1;0.35;1" dur="2.2s" repeatCount="indefinite"/></circle>
<rect x="90.0" y="78.0" width="176.0" height="138.0" rx="18" fill="none" stroke="#3a2f10" stroke-width="12"/>
<rect x="90.0" y="78.0" width="176.0" height="138.0" rx="18" fill="none" stroke="#ffb703" stroke-width="4" opacity="0.9"/>
<rect x="90.0" y="78.0" width="176.0" height="138.0" rx="18" fill="none" stroke="#fff6dd" stroke-width="2.6" stroke-linecap="round" stroke-dasharray="9 15" opacity="0.85"><animate attributeName="stroke-dashoffset" from="0" to="-24" dur="1.08s" repeatCount="indefinite"/></rect>
<rect x="59.0" y="97.3" width="62" height="99.4" rx="8" fill="#0b0d12" stroke="#ffb703" stroke-width="2"/>
<rect x="59.0" y="97.3" width="62" height="21.9" rx="8" fill="#1c2029" stroke="#ffb703" stroke-width="1.4"/>
<clipPath id="tankClip"><rect x="62.0" y="100.3" width="56" height="93.4" rx="6"/></clipPath>
<rect x="62.0" y="133.4" width="56" height="60.3" fill="url(#coolantGrad)" clip-path="url(#tankClip)" filter="url(#glow)"/>
<line x1="62.0" y1="133.4" x2="118.0" y2="133.4" stroke="#fff3d0" stroke-width="1.2" opacity="0.8" clip-path="url(#tankClip)"/>
<circle cx="68.8" cy="190.7" r="2.7" fill="#fff6dd" opacity="0.55" clip-path="url(#tankClip)"><animate attributeName="cy" values="190.7;136.4" dur="3.9s" begin="2.06s" repeatCount="indefinite"/><animate attributeName="opacity" values="0.6;0" dur="3.9s" begin="2.06s" repeatCount="indefinite"/></circle>
<circle cx="91.9" cy="190.7" r="3.3" fill="#fff6dd" opacity="0.55" clip-path="url(#tankClip)"><animate attributeName="cy" values="190.7;136.4" dur="3.08s" begin="1.84s" repeatCount="indefinite"/><animate attributeName="opacity" values="0.6;0" dur="3.08s" begin="1.84s" repeatCount="indefinite"/></circle>
<circle cx="109.4" cy="190.7" r="2.7" fill="#fff6dd" opacity="0.55" clip-path="url(#tankClip)"><animate attributeName="cy" values="190.7;136.4" dur="2.54s" begin="0.6s" repeatCount="indefinite"/><animate attributeName="opacity" values="0.6;0" dur="2.54s" begin="0.6s" repeatCount="indefinite"/></circle>
<circle cx="67.4" cy="190.7" r="1.9" fill="#fff6dd" opacity="0.55" clip-path="url(#tankClip)"><animate attributeName="cy" values="190.7;136.4" dur="3.0s" begin="1.63s" repeatCount="indefinite"/><animate attributeName="opacity" values="0.6;0" dur="3.0s" begin="1.63s" repeatCount="indefinite"/></circle>
<circle cx="87.3" cy="190.7" r="1.6" fill="#fff6dd" opacity="0.55" clip-path="url(#tankClip)"><animate attributeName="cy" values="190.7;136.4" dur="2.8s" begin="1.19s" repeatCount="indefinite"/><animate attributeName="opacity" values="0.6;0" dur="2.8s" begin="1.19s" repeatCount="indefinite"/></circle>
<circle cx="111.6" cy="190.7" r="2.8" fill="#fff6dd" opacity="0.55" clip-path="url(#tankClip)"><animate attributeName="cy" values="190.7;136.4" dur="2.64s" begin="2.05s" repeatCount="indefinite"/><animate attributeName="opacity" values="0.6;0" dur="2.64s" begin="2.05s" repeatCount="indefinite"/></circle>
<rect x="236.0" y="117.0" width="60" height="60" rx="9" fill="none" stroke="#00ffcc" stroke-width="1.4" opacity="0.4" filter="url(#glow)"><animate attributeName="opacity" values="0.2;0.75;0.2" dur="2.4s" repeatCount="indefinite"/></rect>
<rect x="240.0" y="121.0" width="52" height="52" rx="6" fill="#0b0d12" stroke="#00ffcc" stroke-width="2" filter="url(#glow)"/>
<line x1="247.0" y1="129.0" x2="285.0" y2="129.0" stroke="#00ffcc" stroke-width="1.1" opacity="0.5"/>
<line x1="247.0" y1="138.0" x2="285.0" y2="138.0" stroke="#00ffcc" stroke-width="1.1" opacity="0.5"/>
<line x1="247.0" y1="147.0" x2="285.0" y2="147.0" stroke="#00ffcc" stroke-width="1.1" opacity="0.5"/>
<line x1="247.0" y1="156.0" x2="285.0" y2="156.0" stroke="#00ffcc" stroke-width="1.1" opacity="0.5"/>
<line x1="247.0" y1="165.0" x2="285.0" y2="165.0" stroke="#00ffcc" stroke-width="1.1" opacity="0.5"/>
<g>
<animateTransform attributeName="transform" type="rotate" from="0 266.0 147.0" to="360 266.0 147.0" dur="1.22s" repeatCount="indefinite"/>
<path d="M 266.0,147.0 C 259.0,141.8 263.9,135.3 266.0,134.0 C 269.9,135.9 270.2,143.8 266.0,147.0 Z" transform="rotate(0 266.0 147.0)" fill="#00ffcc" opacity="0.85"/>
<path d="M 266.0,147.0 C 259.0,141.8 263.9,135.3 266.0,134.0 C 269.9,135.9 270.2,143.8 266.0,147.0 Z" transform="rotate(120 266.0 147.0)" fill="#00ffcc" opacity="0.85"/>
<path d="M 266.0,147.0 C 259.0,141.8 263.9,135.3 266.0,134.0 C 269.9,135.9 270.2,143.8 266.0,147.0 Z" transform="rotate(240 266.0 147.0)" fill="#00ffcc" opacity="0.85"/>
<circle cx="266.0" cy="147.0" r="3.4" fill="#0b0d12" stroke="#00ffcc" stroke-width="1.4"/>
</g>
<text x="266.0" y="113.0" text-anchor="middle" font-family="Consolas, 'Courier New', monospace" font-size="7.5" fill="#00ffcc">CPU BLOCK</text>
<text x="32.0" y="236.0" font-family="Consolas, 'Courier New', monospace" font-size="11" fill="#c9c9d0">PUMP SPEED:</text>
<text x="208.0" y="236.0" font-family="Consolas, 'Courier New', monospace" font-size="11" font-weight="bold" fill="#ffb703">3,820 RPM</text>
<text x="32.0" y="256.0" font-family="Consolas, 'Courier New', monospace" font-size="11" fill="#c9c9d0">COOLANT TEMP:</text>
<text x="208.0" y="256.0" font-family="Consolas, 'Courier New', monospace" font-size="11" font-weight="bold" fill="#00ffcc">47°C [NOMINAL]</text>
<text x="32.0" y="276.0" font-family="Consolas, 'Courier New', monospace" font-size="11" fill="#c9c9d0">SYS PRESSURE:</text>
<text x="208.0" y="276.0" font-family="Consolas, 'Courier New', monospace" font-size="11" font-weight="bold" fill="#00ffcc">1.29 BAR (NOMINAL)</text>
  </g>

  <g id="tesla-tower">
<text x="434.0" y="52.0" font-family="Consolas, 'Courier New', monospace" font-size="15">⚡</text>
<text x="456.0" y="50.0" font-family="Consolas, 'Courier New', monospace" font-size="12.5" font-weight="bold" fill="#ffb703" letter-spacing="1.2">EM BUG INTERCEPTOR</text>
<circle cx="822.0" cy="45.0" r="4.5" fill="#00ffcc" filter="url(#glow)"><animate attributeName="opacity" values="1;0.35;1" dur="2.2s" repeatCount="indefinite"/></circle>
<polygon points="595.0,202.0 669.0,202.0 644.0,110.0 620.0,110.0" fill="#12161d" stroke="#ffb703" stroke-width="1.6"/>
<rect x="603.0" y="169.1" width="58.0" height="7" fill="#ffb703"/>
<rect x="611.0" y="139.6" width="42.0" height="7" fill="#ffb703"/>
<ellipse cx="632.0" cy="204.0" rx="43.0" ry="4" fill="#000000" opacity="0.35"/>
<circle cx="632.0" cy="94.0" r="19" fill="url(#orbGlow)"><animate attributeName="r" values="17;22;17" dur="1.8s" repeatCount="indefinite"/></circle>
<circle cx="632.0" cy="94.0" r="10" fill="none" stroke="#00ffcc" stroke-width="1.2" opacity="0.8"><animate attributeName="r" values="9;12;9" dur="1.8s" repeatCount="indefinite"/></circle>
<circle cx="632.0" cy="94.0" r="6.5" fill="#eafffa" filter="url(#glowStrong)"><animate attributeName="opacity" values="1;0.65;1" dur="1.2s" repeatCount="indefinite"/></circle>
<path d="M 617.0,94.0 L 590.4,91.4 L 564.5,97.2 L 524.3,96.4 L 496.7,94.9 L 470.0,98.0" fill="none" stroke="#00ffcc" stroke-width="2.2" stroke-linecap="round" stroke-linejoin="round" filter="url(#glowStrong)"><animate attributeName="d" values="M 617.0,94.0 L 590.4,91.4 L 564.5,97.2 L 524.3,96.4 L 496.7,94.9 L 470.0,98.0;M 617.0,94.0 L 582.0,97.1 L 553.6,96.8 L 523.5,100.3 L 494.2,95.4 L 470.0,98.0;M 617.0,94.0 L 581.2,93.0 L 564.7,98.2 L 530.7,92.6 L 495.0,98.4 L 470.0,98.0;M 617.0,94.0 L 590.4,91.4 L 564.5,97.2 L 524.3,96.4 L 496.7,94.9 L 470.0,98.0" dur="0.2s" repeatCount="indefinite"/><animate attributeName="opacity" values="1;0.5;1;0.75;1" dur="0.15s" repeatCount="indefinite"/></path><path d="M 617.0,94.0 L 590.4,91.4 L 564.5,97.2 L 524.3,96.4 L 496.7,94.9 L 470.0,98.0" fill="none" stroke="#ffffff" stroke-width="0.8" stroke-linecap="round" stroke-linejoin="round" opacity="0.85"><animate attributeName="d" values="M 617.0,94.0 L 590.4,91.4 L 564.5,97.2 L 524.3,96.4 L 496.7,94.9 L 470.0,98.0;M 617.0,94.0 L 582.0,97.1 L 553.6,96.8 L 523.5,100.3 L 494.2,95.4 L 470.0,98.0;M 617.0,94.0 L 581.2,93.0 L 564.7,98.2 L 530.7,92.6 L 495.0,98.4 L 470.0,98.0;M 617.0,94.0 L 590.4,91.4 L 564.5,97.2 L 524.3,96.4 L 496.7,94.9 L 470.0,98.0" dur="0.2s" repeatCount="indefinite"/></path>
<path d="M 647.0,94.0 L 677.1,92.3 L 704.9,98.8 L 726.5,98.2 L 754.3,101.0 L 784.0,98.0" fill="none" stroke="#00ffcc" stroke-width="2.2" stroke-linecap="round" stroke-linejoin="round" filter="url(#glowStrong)"><animate attributeName="d" values="M 647.0,94.0 L 677.1,92.3 L 704.9,98.8 L 726.5,98.2 L 754.3,101.0 L 784.0,98.0;M 647.0,94.0 L 682.3,94.2 L 707.6,92.8 L 725.2,93.7 L 748.6,94.6 L 784.0,98.0;M 647.0,94.0 L 667.6,97.3 L 702.2,99.2 L 735.0,93.2 L 758.0,95.7 L 784.0,98.0;M 647.0,94.0 L 677.1,92.3 L 704.9,98.8 L 726.5,98.2 L 754.3,101.0 L 784.0,98.0" dur="0.2s" repeatCount="indefinite"/><animate attributeName="opacity" values="1;0.5;1;0.75;1" dur="0.15s" repeatCount="indefinite"/></path><path d="M 647.0,94.0 L 677.1,92.3 L 704.9,98.8 L 726.5,98.2 L 754.3,101.0 L 784.0,98.0" fill="none" stroke="#ffffff" stroke-width="0.8" stroke-linecap="round" stroke-linejoin="round" opacity="0.85"><animate attributeName="d" values="M 647.0,94.0 L 677.1,92.3 L 704.9,98.8 L 726.5,98.2 L 754.3,101.0 L 784.0,98.0;M 647.0,94.0 L 682.3,94.2 L 707.6,92.8 L 725.2,93.7 L 748.6,94.6 L 784.0,98.0;M 647.0,94.0 L 667.6,97.3 L 702.2,99.2 L 735.0,93.2 L 758.0,95.7 L 784.0,98.0;M 647.0,94.0 L 677.1,92.3 L 704.9,98.8 L 726.5,98.2 L 754.3,101.0 L 784.0,98.0" dur="0.2s" repeatCount="indefinite"/></path>
<g transform="translate(454.0,98.0)">
      <g>
        <animateTransform attributeName="transform" type="rotate"
          values="-12;-26;2;-20;-8;-12" dur="0.45s" repeatCount="indefinite"/>
        <ellipse cx="0" cy="0" rx="13" ry="8.5" fill="#ffe066" stroke="#6b4e00" stroke-width="1.3"/>
        <line x1="-9" y1="0" x2="9" y2="0" stroke="#6b4e00" stroke-width="0.8"/>
        <line x1="-8" y1="-7" x2="-17" y2="-15" stroke="#6b4e00" stroke-width="1.6"/>
        <line x1="-2" y1="-8" x2="-5" y2="-19" stroke="#6b4e00" stroke-width="1.6"/>
        <line x1="7" y1="-7" x2="15" y2="-17" stroke="#6b4e00" stroke-width="1.6"/>
        <line x1="-8" y1="7" x2="-18" y2="12" stroke="#6b4e00" stroke-width="1.6"/>
        <line x1="1" y1="8" x2="2" y2="20" stroke="#6b4e00" stroke-width="1.6"/>
        <line x1="8" y1="7" x2="17" y2="14" stroke="#6b4e00" stroke-width="1.6"/>
        <circle cx="-6" cy="-14" r="1.3" fill="#6b4e00"/>
        <circle cx="3" cy="-15" r="1.3" fill="#6b4e00"/>
        <circle cx="-9" cy="-2.5" r="1.6" fill="#3a2900"/>
        <circle cx="-9" cy="2.5" r="1.6" fill="#3a2900"/>
      </g>
    </g>
<text x="454.0" y="78.0" text-anchor="middle" font-family="Consolas, 'Courier New', monospace" font-size="7.5" font-weight="bold" fill="#ff4d4d">[TARGET DETECTED]</text>
<text x="824.0" y="94.0" text-anchor="end" font-family="Consolas, 'Courier New', monospace" font-size="9.5" font-weight="bold" fill="#ff4d4d" filter="url(#glow)">NullPointer</text>
<line x1="746.0" y1="102.0" x2="824.0" y2="102.0" stroke="#ff4d4d" stroke-width="1.2" stroke-dasharray="3 2"/>
<text x="446.0" y="236.0" font-family="Consolas, 'Courier New', monospace" font-size="10.5" fill="#c9c9d0">SHIELD INTEGRITY:</text>
<text x="622.0" y="236.0" font-family="Consolas, 'Courier New', monospace" font-size="10.5" font-weight="bold" fill="#00ffcc">ACTIVE (100%)</text>
<text x="446.0" y="254.0" font-family="Consolas, 'Courier New', monospace" font-size="10.5" fill="#c9c9d0">ZAP DISCHARGE:</text>
<text x="622.0" y="254.0" font-family="Consolas, 'Courier New', monospace" font-size="10.5" font-weight="bold" fill="#ffb703">8.4 kV [MAX]</text>
<text x="446.0" y="272.0" font-family="Consolas, 'Courier New', monospace" font-size="10.5" fill="#c9c9d0">BUGS DESTROYED:</text>
<text x="622.0" y="272.0" font-family="Consolas, 'Courier New', monospace" font-size="10.5" font-weight="bold" fill="#ffb703">54 EXCEPTIONS</text>
<text x="446.0" y="290.0" font-family="Consolas, 'Courier New', monospace" font-size="10.5" fill="#c9c9d0">THREAT LEVEL:</text>
<text x="622.0" y="290.0" font-family="Consolas, 'Courier New', monospace" font-size="10.5" font-weight="bold" fill="#00ffcc">MINIMAL</text>
  </g>
</svg>
